STARTFONT 2.1
COMMENT
COMMENT Converted from OpenType font "Oxanium-VariableFont_wght.ttf" by "otf2bdf 3.0".
COMMENT
FONT -FreeType-Oxanium ExtraLight-Medium-R-Normal--21-210-72-72-P-87-ISO10646-1
SIZE 21 72 72
FONTBOUNDINGBOX 33 27 -9 -5
STARTPROPERTIES 19
FOUNDRY "FreeType"
FAMILY_NAME "Oxanium ExtraLight"
WEIGHT_NAME "Medium"
SLANT "R"
SETWIDTH_NAME "Normal"
ADD_STYLE_NAME ""
PIXEL_SIZE 21
POINT_SIZE 210
RESOLUTION_X 72
RESOLUTION_Y 72
SPACING "P"
AVERAGE_WIDTH 87
CHARSET_REGISTRY "ISO10646"
CHARSET_ENCODING "1"
FONT_ASCENT 16
FONT_DESCENT 4
COPYRIGHT "Copyright 2019 The Oxanium Project Authors (https://github.com/sevmeyer/oxanium)"
_OTF_FONTFILE "Oxanium-VariableFont_wght.ttf"
_OTF_PSNAME "Oxanium-ExtraLight"
ENDPROPERTIES
CHARS 357
STARTCHAR 0000
ENCODING 0
SWIDTH 0 0
DWIDTH 0 0
BBX 0 0 0 0
BITMAP
ENDCHAR
STARTCHAR 000D
ENCODING 13
SWIDTH 238 0
DWIDTH 5 0
BBX 0 0 0 0
BITMAP
ENDCHAR
STARTCHAR 0020
ENCODING 32
SWIDTH 238 0
DWIDTH 5 0
BBX 0 0 0 0
BITMAP
ENDCHAR
STARTCHAR 0021
ENCODING 33
SWIDTH 238 0
DWIDTH 5 0
BBX 1 15 2 0
BITMAP
80
80
80
80
80
80
80
80
80
80
80
00
00
80
80
ENDCHAR
STARTCHAR 0022
ENCODING 34
SWIDTH 333 0
DWIDTH 7 0
BBX 4 5 2 11
BITMAP
90
90
90
90
90
ENDCHAR
STARTCHAR 0023
ENCODING 35
SWIDTH 666 0
DWIDTH 14 0
BBX 12 15 1 0
BITMAP
1080
1080
1080
1080
FFF0
1080
1080
1080
1080
1080
FFF0
1080
1080
1080
1080
ENDCHAR
STARTCHAR 0024
ENCODING 36
SWIDTH 571 0
DWIDTH 12 0
BBX 9 20 2 -3
BITMAP
0800
0800
0800
7F00
8000
8000
8000
8000
8000
7800
0700
0100
0080
0080
0080
0100
FE00
0800
0800
0800
ENDCHAR
STARTCHAR 0025
ENCODING 37
SWIDTH 857 0
DWIDTH 18 0
BBX 16 15 1 0
BITMAP
F810
8420
8420
8440
8440
8480
849E
8521
F921
0221
0221
0421
0421
0421
081E
ENDCHAR
STARTCHAR 0026
ENCODING 38
SWIDTH 666 0
DWIDTH 14 0
BBX 11 15 2 0
BITMAP
7F00
8000
8000
8000
8000
8000
4000
7FE0
8080
8080
8080
8080
8080
8080
7F80
ENDCHAR
STARTCHAR 0027
ENCODING 39
SWIDTH 190 0
DWIDTH 4 0
BBX 1 5 2 11
BITMAP
80
80
80
80
80
ENDCHAR
STARTCHAR 0028
ENCODING 40
SWIDTH 285 0
DWIDTH 6 0
BBX 4 20 2 -4
BITMAP
10
20
40
40
80
80
80
80
80
80
80
80
80
80
80
80
40
40
20
10
ENDCHAR
STARTCHAR 0029
ENCODING 41
SWIDTH 285 0
DWIDTH 6 0
BBX 4 20 0 -4
BITMAP
C0
40
20
20
10
10
10
10
10
10
10
10
10
10
10
10
20
20
40
C0
ENDCHAR
STARTCHAR 002A
ENCODING 42
SWIDTH 476 0
DWIDTH 10 0
BBX 8 8 1 7
BITMAP
08
08
08
EF
18
18
24
42
ENDCHAR
STARTCHAR 002B
ENCODING 43
SWIDTH 571 0
DWIDTH 12 0
BBX 10 11 1 2
BITMAP
0400
0400
0400
0400
0400
FFC0
0400
0400
0400
0400
0400
ENDCHAR
STARTCHAR 002C
ENCODING 44
SWIDTH 238 0
DWIDTH 5 0
BBX 2 5 1 -3
BITMAP
40
40
80
80
80
ENDCHAR
STARTCHAR 002D
ENCODING 45
SWIDTH 333 0
DWIDTH 7 0
BBX 5 1 1 6
BITMAP
F8
ENDCHAR
STARTCHAR 002E
ENCODING 46
SWIDTH 238 0
DWIDTH 5 0
BBX 1 2 2 0
BITMAP
80
80
ENDCHAR
STARTCHAR 002F
ENCODING 47
SWIDTH 380 0
DWIDTH 8 0
BBX 7 17 0 -1
BITMAP
02
02
04
04
04
08
08
08
10
10
10
20
20
20
40
40
80
ENDCHAR
STARTCHAR 0030
ENCODING 48
SWIDTH 571 0
DWIDTH 12 0
BBX 10 15 1 0
BITMAP
3F80
4080
4040
C040
C040
C040
C040
C040
C040
C040
C040
C040
4040
4080
3F80
ENDCHAR
STARTCHAR 0031
ENCODING 49
SWIDTH 571 0
DWIDTH 12 0
BBX 8 15 2 0
BITMAP
78
08
08
08
08
08
08
08
08
08
08
08
08
08
FF
ENDCHAR
STARTCHAR 0032
ENCODING 50
SWIDTH 571 0
DWIDTH 12 0
BBX 10 15 1 0
BITMAP
7F80
0080
0040
0040
0040
0040
0080
1F00
6000
4000
C000
C000
C000
C000
FFC0
ENDCHAR
STARTCHAR 0033
ENCODING 51
SWIDTH 571 0
DWIDTH 12 0
BBX 9 15 2 0
BITMAP
FF00
0100
0080
0080
0080
0080
0100
7E00
0100
0080
0080
0080
0080
0100
FF00
ENDCHAR
STARTCHAR 0034
ENCODING 52
SWIDTH 571 0
DWIDTH 12 0
BBX 10 15 1 0
BITMAP
0600
0400
0C00
0800
0800
1000
1040
2040
2040
4040
4040
FFC0
0040
0040
0040
ENDCHAR
STARTCHAR 0035
ENCODING 53
SWIDTH 571 0
DWIDTH 12 0
BBX 10 15 1 0
BITMAP
FF80
C000
C000
C000
C000
C000
FF00
0080
0040
0040
0040
0040
0040
0080
FF80
ENDCHAR
STARTCHAR 0036
ENCODING 54
SWIDTH 571 0
DWIDTH 12 0
BBX 10 15 1 0
BITMAP
3F80
4000
4000
C000
C000
C000
FF00
C080
C040
C040
C040
C040
4040
4080
3F80
ENDCHAR
STARTCHAR 0037
ENCODING 55
SWIDTH 571 0
DWIDTH 12 0
BBX 10 15 1 0
BITMAP
FFC0
0040
0040
0080
0080
0100
0100
0200
0200
0400
0400
0800
0800
1000
1000
ENDCHAR
STARTCHAR 0038
ENCODING 56
SWIDTH 571 0
DWIDTH 12 0
BBX 10 15 1 0
BITMAP
3F80
4080
4040
C040
C040
4040
4080
3F00
4080
C040
C040
C040
4040
4080
3F80
ENDCHAR
STARTCHAR 0039
ENCODING 57
SWIDTH 571 0
DWIDTH 12 0
BBX 10 15 1 0
BITMAP
3F80
4080
4040
C040
C040
C040
4040
4040
3FC0
0040
0040
0040
0040
0080
7F00
ENDCHAR
STARTCHAR 003A
ENCODING 58
SWIDTH 238 0
DWIDTH 5 0
BBX 1 11 2 0
BITMAP
80
80
00
00
00
00
00
00
00
80
80
ENDCHAR
STARTCHAR 003B
ENCODING 59
SWIDTH 238 0
DWIDTH 5 0
BBX 2 14 1 -3
BITMAP
40
40
00
00
00
00
00
00
00
40
40
80
80
80
ENDCHAR
STARTCHAR 003C
ENCODING 60
SWIDTH 571 0
DWIDTH 12 0
BBX 10 9 1 3
BITMAP
00C0
0300
1C00
6000
8000
6000
1C00
0300
00C0
ENDCHAR
STARTCHAR 003D
ENCODING 61
SWIDTH 571 0
DWIDTH 12 0
BBX 10 6 1 4
BITMAP
FFC0
0000
0000
0000
0000
FFC0
ENDCHAR
STARTCHAR 003E
ENCODING 62
SWIDTH 571 0
DWIDTH 12 0
BBX 10 9 1 3
BITMAP
E000
1800
0600
0180
0040
0180
0600
1800
E000
ENDCHAR
STARTCHAR 003F
ENCODING 63
SWIDTH 476 0
DWIDTH 10 0
BBX 8 15 1 0
BITMAP
FE
01
01
01
01
01
01
1E
10
10
10
00
00
10
10
ENDCHAR
STARTCHAR 0040
ENCODING 64
SWIDTH 809 0
DWIDTH 17 0
BBX 13 17 2 -2
BITMAP
7FF8
8008
8008
8008
83F8
8408
8408
8408
8408
8408
8408
8408
83F8
8000
8000
8000
7FF0
ENDCHAR
STARTCHAR 0041
ENCODING 65
SWIDTH 619 0
DWIDTH 13 0
BBX 12 15 0 0
BITMAP
0600
0500
0500
0880
0880
0880
10C0
1040
1040
2060
3FE0
2020
4030
4010
C010
ENDCHAR
STARTCHAR 0042
ENCODING 66
SWIDTH 619 0
DWIDTH 13 0
BBX 10 15 2 0
BITMAP
FF00
8080
8080
8040
8040
80C0
8080
FF80
8040
8040
8040
8040
8040
8040
FF80
ENDCHAR
STARTCHAR 0043
ENCODING 67
SWIDTH 619 0
DWIDTH 13 0
BBX 10 15 2 0
BITMAP
7FC0
8000
8000
8000
8000
8000
8000
8000
8000
8000
8000
8000
8000
8000
7FC0
ENDCHAR
STARTCHAR 0044
ENCODING 68
SWIDTH 666 0
DWIDTH 14 0
BBX 11 15 2 0
BITMAP
FF00
80C0
8040
8040
8020
8020
8020
8020
8020
8020
8020
8040
8040
80C0
FF00
ENDCHAR
STARTCHAR 0045
ENCODING 69
SWIDTH 571 0
DWIDTH 12 0
BBX 9 15 2 0
BITMAP
FF80
8000
8000
8000
8000
8000
8000
FF80
8000
8000
8000
8000
8000
8000
FF80
ENDCHAR
STARTCHAR 0046
ENCODING 70
SWIDTH 571 0
DWIDTH 12 0
BBX 9 15 2 0
BITMAP
FF80
8000
8000
8000
8000
8000
8000
FF80
8000
8000
8000
8000
8000
8000
8000
ENDCHAR
STARTCHAR 0047
ENCODING 71
SWIDTH 666 0
DWIDTH 14 0
BBX 10 15 2 0
BITMAP
7FC0
8000
8000
8000
8000
8000
8000
87C0
8040
8040
8040
8040
8040
8040
7FC0
ENDCHAR
STARTCHAR 0048
ENCODING 72
SWIDTH 714 0
DWIDTH 15 0
BBX 11 15 2 0
BITMAP
8020
8020
8020
8020
8020
8020
8020
FFE0
8020
8020
8020
8020
8020
8020
8020
ENDCHAR
STARTCHAR 0049
ENCODING 73
SWIDTH 238 0
DWIDTH 5 0
BBX 1 15 2 0
BITMAP
80
80
80
80
80
80
80
80
80
80
80
80
80
80
80
ENDCHAR
STARTCHAR 004A
ENCODING 74
SWIDTH 619 0
DWIDTH 13 0
BBX 10 15 1 0
BITMAP
1FC0
0040
0040
0040
0040
0040
0040
0040
0040
0040
8040
8040
8040
4080
7F80
ENDCHAR
STARTCHAR 004B
ENCODING 75
SWIDTH 619 0
DWIDTH 13 0
BBX 10 15 2 0
BITMAP
80C0
8180
8300
8200
8400
8800
9800
A800
C400
C600
8200
8100
8180
8080
8040
ENDCHAR
STARTCHAR 004C
ENCODING 76
SWIDTH 523 0
DWIDTH 11 0
BBX 9 15 2 0
BITMAP
8000
8000
8000
8000
8000
8000
8000
8000
8000
8000
8000
8000
8000
8000
FF80
ENDCHAR
STARTCHAR 004D
ENCODING 77
SWIDTH 857 0
DWIDTH 18 0
BBX 14 15 2 0
BITMAP
C00C
C01C
A014
A014
9024
9024
9844
8844
8884
8484
8504
8304
8304
8004
8004
ENDCHAR
STARTCHAR 004E
ENCODING 78
SWIDTH 714 0
DWIDTH 15 0
BBX 11 15 2 0
BITMAP
8020
C020
A020
A020
9020
8820
8820
8420
8220
8220
8120
81A0
80A0
8060
8060
ENDCHAR
STARTCHAR 004F
ENCODING 79
SWIDTH 714 0
DWIDTH 15 0
BBX 11 15 2 0
BITMAP
7FC0
8060
8020
8020
8020
8020
8020
8020
8020
8020
8020
8020
8020
8060
7FC0
ENDCHAR
STARTCHAR 0050
ENCODING 80
SWIDTH 619 0
DWIDTH 13 0
BBX 10 15 2 0
BITMAP
FF80
8080
8040
8040
8040
8040
8040
8080
FF80
8000
8000
8000
8000
8000
8000
ENDCHAR
STARTCHAR 0051
ENCODING 81
SWIDTH 714 0
DWIDTH 15 0
BBX 11 18 2 -3
BITMAP
7FC0
8060
8020
8020
8020
8020
8020
8020
8020
8020
8020
8020
8020
8060
7FC0
0100
0080
0080
ENDCHAR
STARTCHAR 0052
ENCODING 82
SWIDTH 619 0
DWIDTH 13 0
BBX 10 15 2 0
BITMAP
FF80
8080
8040
8040
8040
8040
8040
8080
FF80
8300
8100
8180
8080
80C0
8040
ENDCHAR
STARTCHAR 0053
ENCODING 83
SWIDTH 571 0
DWIDTH 12 0
BBX 10 15 1 0
BITMAP
7F80
4000
8000
8000
8000
4000
7000
0F00
0080
0040
0040
0040
0040
0080
FF80
ENDCHAR
STARTCHAR 0054
ENCODING 84
SWIDTH 571 0
DWIDTH 12 0
BBX 12 15 0 0
BITMAP
FFF0
0200
0200
0200
0200
0200
0200
0200
0200
0200
0200
0200
0200
0200
0200
ENDCHAR
STARTCHAR 0055
ENCODING 85
SWIDTH 666 0
DWIDTH 14 0
BBX 10 15 2 0
BITMAP
8040
8040
8040
8040
8040
8040
8040
8040
8040
8040
8040
8040
8040
8040
7F80
ENDCHAR
STARTCHAR 0056
ENCODING 86
SWIDTH 619 0
DWIDTH 13 0
BBX 12 15 0 0
BITMAP
C010
4010
4020
2020
2020
2040
3040
1040
1080
1880
0880
0900
0900
0500
0600
ENDCHAR
STARTCHAR 0057
ENCODING 87
SWIDTH 904 0
DWIDTH 19 0
BBX 17 15 1 0
BITMAP
800080
800080
808080
818100
414100
414100
414100
422200
222200
222200
242200
241400
141400
181400
180C00
ENDCHAR
STARTCHAR 0058
ENCODING 88
SWIDTH 571 0
DWIDTH 12 0
BBX 11 15 1 0
BITMAP
8040
40C0
6080
2100
1300
1A00
0C00
0C00
0E00
1200
3100
2180
4080
C040
8060
ENDCHAR
STARTCHAR 0059
ENCODING 89
SWIDTH 571 0
DWIDTH 12 0
BBX 11 15 0 0
BITMAP
C020
4060
2040
20C0
1080
1100
0900
0A00
0600
0400
0400
0400
0400
0400
0400
ENDCHAR
STARTCHAR 005A
ENCODING 90
SWIDTH 619 0
DWIDTH 13 0
BBX 10 15 1 0
BITMAP
FFC0
0040
0080
0100
0100
0200
0400
0400
0800
1000
1000
2000
4000
4000
FFC0
ENDCHAR
STARTCHAR 005B
ENCODING 91
SWIDTH 333 0
DWIDTH 7 0
BBX 4 20 2 -4
BITMAP
F0
80
80
80
80
80
80
80
80
80
80
80
80
80
80
80
80
80
80
F0
ENDCHAR
STARTCHAR 005C
ENCODING 92
SWIDTH 380 0
DWIDTH 8 0
BBX 7 17 0 -1
BITMAP
80
40
40
20
20
20
10
10
10
08
08
08
04
04
04
02
02
ENDCHAR
STARTCHAR 005D
ENCODING 93
SWIDTH 333 0
DWIDTH 7 0
BBX 4 20 1 -4
BITMAP
F0
10
10
10
10
10
10
10
10
10
10
10
10
10
10
10
10
10
10
F0
ENDCHAR
STARTCHAR 005E
ENCODING 94
SWIDTH 523 0
DWIDTH 11 0
BBX 9 8 1 7
BITMAP
0800
1400
1400
2200
2200
4100
8080
8080
ENDCHAR
STARTCHAR 005F
ENCODING 95
SWIDTH 571 0
DWIDTH 12 0
BBX 10 1 1 -5
BITMAP
FFC0
ENDCHAR
STARTCHAR 0060
ENCODING 96
SWIDTH 523 0
DWIDTH 11 0
BBX 3 4 3 13
BITMAP
80
40
60
20
ENDCHAR
STARTCHAR 0061
ENCODING 97
SWIDTH 523 0
DWIDTH 11 0
BBX 9 12 1 0
BITMAP
7E00
0100
0080
0080
0080
3F80
4080
8080
8080
8080
4080
7F80
ENDCHAR
STARTCHAR 0062
ENCODING 98
SWIDTH 571 0
DWIDTH 12 0
BBX 9 16 2 0
BITMAP
8000
8000
8000
8000
FE00
8100
8100
8080
8080
8080
8080
8080
8080
8100
8100
FE00
ENDCHAR
STARTCHAR 0063
ENCODING 99
SWIDTH 476 0
DWIDTH 10 0
BBX 7 12 2 0
BITMAP
7E
80
80
80
80
80
80
80
80
80
80
7E
ENDCHAR
STARTCHAR 0064
ENCODING 100
SWIDTH 571 0
DWIDTH 12 0
BBX 8 16 2 0
BITMAP
01
01
01
01
7F
81
81
81
81
81
81
81
81
81
81
7F
ENDCHAR
STARTCHAR 0065
ENCODING 101
SWIDTH 571 0
DWIDTH 12 0
BBX 8 12 2 0
BITMAP
7E
81
81
81
81
FF
80
80
80
80
80
7F
ENDCHAR
STARTCHAR 0066
ENCODING 102
SWIDTH 380 0
DWIDTH 8 0
BBX 5 16 2 0
BITMAP
78
80
80
80
F8
80
80
80
80
80
80
80
80
80
80
80
ENDCHAR
STARTCHAR 0067
ENCODING 103
SWIDTH 571 0
DWIDTH 12 0
BBX 8 17 2 -5
BITMAP
7F
81
81
81
81
81
81
81
81
81
81
7F
01
01
01
01
FE
ENDCHAR
STARTCHAR 0068
ENCODING 104
SWIDTH 571 0
DWIDTH 12 0
BBX 9 16 2 0
BITMAP
8000
8000
8000
8000
FE00
8100
8100
8080
8080
8080
8080
8080
8080
8080
8080
8080
ENDCHAR
STARTCHAR 0069
ENCODING 105
SWIDTH 238 0
DWIDTH 5 0
BBX 1 16 2 0
BITMAP
80
80
00
00
80
80
80
80
80
80
80
80
80
80
80
80
ENDCHAR
STARTCHAR 006A
ENCODING 106
SWIDTH 238 0
DWIDTH 5 0
BBX 3 21 0 -5
BITMAP
20
20
00
00
20
20
20
20
20
20
20
20
20
20
20
20
20
20
20
60
C0
ENDCHAR
STARTCHAR 006B
ENCODING 107
SWIDTH 476 0
DWIDTH 10 0
BBX 8 16 2 0
BITMAP
80
80
80
80
83
84
8C
88
90
B0
D8
C8
84
84
82
83
ENDCHAR
STARTCHAR 006C
ENCODING 108
SWIDTH 238 0
DWIDTH 5 0
BBX 2 16 2 0
BITMAP
80
80
80
80
80
80
80
80
80
80
80
80
80
80
80
C0
ENDCHAR
STARTCHAR 006D
ENCODING 109
SWIDTH 904 0
DWIDTH 19 0
BBX 15 12 2 0
BITMAP
FFFC
8102
8102
8102
8102
8102
8102
8102
8102
8102
8102
8102
ENDCHAR
STARTCHAR 006E
ENCODING 110
SWIDTH 571 0
DWIDTH 12 0
BBX 9 12 2 0
BITMAP
FE00
8100
8100
8080
8080
8080
8080
8080
8080
8080
8080
8080
ENDCHAR
STARTCHAR 006F
ENCODING 111
SWIDTH 571 0
DWIDTH 12 0
BBX 9 12 2 0
BITMAP
7E00
8100
8080
8080
8080
8080
8080
8080
8080
8080
8100
7E00
ENDCHAR
STARTCHAR 0070
ENCODING 112
SWIDTH 571 0
DWIDTH 12 0
BBX 9 17 2 -5
BITMAP
FE00
8100
8100
8080
8080
8080
8080
8080
8080
8100
8100
FE00
8000
8000
8000
8000
8000
ENDCHAR
STARTCHAR 0071
ENCODING 113
SWIDTH 571 0
DWIDTH 12 0
BBX 8 17 2 -5
BITMAP
7F
81
81
81
81
81
81
81
81
81
81
7F
01
01
01
01
01
ENDCHAR
STARTCHAR 0072
ENCODING 114
SWIDTH 333 0
DWIDTH 7 0
BBX 5 12 2 0
BITMAP
F8
80
80
80
80
80
80
80
80
80
80
80
ENDCHAR
STARTCHAR 0073
ENCODING 115
SWIDTH 476 0
DWIDTH 10 0
BBX 8 12 1 0
BITMAP
7F
40
80
80
40
38
06
01
01
01
01
FE
ENDCHAR
STARTCHAR 0074
ENCODING 116
SWIDTH 380 0
DWIDTH 8 0
BBX 5 15 2 0
BITMAP
80
80
80
F8
80
80
80
80
80
80
80
80
80
80
78
ENDCHAR
STARTCHAR 0075
ENCODING 117
SWIDTH 571 0
DWIDTH 12 0
BBX 8 12 2 0
BITMAP
81
81
81
81
81
81
81
81
81
81
81
7F
ENDCHAR
STARTCHAR 0076
ENCODING 118
SWIDTH 476 0
DWIDTH 10 0
BBX 10 12 0 0
BITMAP
C040
4040
4080
2080
2080
2100
2100
1100
1200
1200
0A00
0C00
ENDCHAR
STARTCHAR 0077
ENCODING 119
SWIDTH 761 0
DWIDTH 16 0
BBX 14 12 1 0
BITMAP
8304
8304
8304
8484
8488
4488
4488
4848
4848
2850
3050
3030
ENDCHAR
STARTCHAR 0078
ENCODING 120
SWIDTH 476 0
DWIDTH 10 0
BBX 9 12 1 0
BITMAP
8180
4100
4200
2400
1400
1800
1800
1400
2200
4200
4100
8180
ENDCHAR
STARTCHAR 0079
ENCODING 121
SWIDTH 476 0
DWIDTH 10 0
BBX 10 17 0 -5
BITMAP
C040
4040
4080
2080
2080
2100
2100
1100
1200
1200
0A00
0C00
0400
0400
0800
0800
0800
ENDCHAR
STARTCHAR 007A
ENCODING 122
SWIDTH 523 0
DWIDTH 11 0
BBX 8 12 1 0
BITMAP
FF
01
02
04
04
08
10
10
20
40
40
FF
ENDCHAR
STARTCHAR 007B
ENCODING 123
SWIDTH 333 0
DWIDTH 7 0
BBX 6 20 1 -4
BITMAP
1C
20
20
20
20
20
20
20
40
80
C0
60
20
20
20
20
20
20
20
1C
ENDCHAR
STARTCHAR 007C
ENCODING 124
SWIDTH 238 0
DWIDTH 5 0
BBX 1 21 2 -5
BITMAP
80
80
80
80
80
80
80
80
80
80
80
80
80
80
80
80
80
80
80
80
80
ENDCHAR
STARTCHAR 007D
ENCODING 125
SWIDTH 333 0
DWIDTH 7 0
BBX 5 20 1 -4
BITMAP
C0
20
20
20
20
20
20
20
10
08
08
10
20
20
20
20
20
20
20
C0
ENDCHAR
STARTCHAR 007E
ENCODING 126
SWIDTH 571 0
DWIDTH 12 0
BBX 10 3 1 5
BITMAP
3840
4C80
8700
ENDCHAR
STARTCHAR 00A0
ENCODING 160
SWIDTH 238 0
DWIDTH 5 0
BBX 0 0 0 0
BITMAP
ENDCHAR
STARTCHAR 00A1
ENCODING 161
SWIDTH 238 0
DWIDTH 5 0
BBX 1 15 2 -3
BITMAP
80
80
00
00
80
80
80
80
80
80
80
80
80
80
80
ENDCHAR
STARTCHAR 00A2
ENCODING 162
SWIDTH 571 0
DWIDTH 12 0
BBX 8 18 2 -3
BITMAP
08
08
08
7F
80
80
80
80
80
80
80
80
80
80
7F
08
08
08
ENDCHAR
STARTCHAR 00A3
ENCODING 163
SWIDTH 571 0
DWIDTH 12 0
BBX 10 15 1 0
BITMAP
1F80
1000
2000
2000
2000
2000
2000
FF00
2000
2000
2000
2000
2000
2000
FFC0
ENDCHAR
STARTCHAR 00A4
ENCODING 164
SWIDTH 571 0
DWIDTH 12 0
BBX 10 10 1 2
BITMAP
C0C0
3F00
2100
2100
2100
2100
2100
3F00
4080
8040
ENDCHAR
STARTCHAR 00A5
ENCODING 165
SWIDTH 571 0
DWIDTH 12 0
BBX 10 15 1 0
BITMAP
8040
40C0
4080
2100
2100
1200
1200
0C00
7F80
0400
0400
7F80
0400
0400
0400
ENDCHAR
STARTCHAR 00A6
ENCODING 166
SWIDTH 238 0
DWIDTH 5 0
BBX 1 21 2 -5
BITMAP
80
80
80
80
80
80
80
80
00
00
00
00
00
80
80
80
80
80
80
80
80
ENDCHAR
STARTCHAR 00A7
ENCODING 167
SWIDTH 523 0
DWIDTH 11 0
BBX 7 17 2 -2
BITMAP
7E
80
80
80
C0
BC
82
82
82
82
C2
3A
06
02
02
02
FC
ENDCHAR
STARTCHAR 00A8
ENCODING 168
SWIDTH 523 0
DWIDTH 11 0
BBX 5 2 3 14
BITMAP
98
98
ENDCHAR
STARTCHAR 00A9
ENCODING 169
SWIDTH 857 0
DWIDTH 18 0
BBX 14 15 2 0
BITMAP
7FF8
8004
8004
8F84
9004
9004
9004
9004
9004
9004
9004
8F84
8004
8004
7FF8
ENDCHAR
STARTCHAR 00AA
ENCODING 170
SWIDTH 380 0
DWIDTH 8 0
BBX 6 9 1 6
BITMAP
FC
04
04
04
FC
84
84
84
FC
ENDCHAR
STARTCHAR 00AB
ENCODING 171
SWIDTH 428 0
DWIDTH 9 0
BBX 8 9 1 2
BITMAP
13
22
44
C8
90
C8
44
22
11
ENDCHAR
STARTCHAR 00AC
ENCODING 172
SWIDTH 571 0
DWIDTH 12 0
BBX 10 5 1 4
BITMAP
FFC0
0040
0040
0040
0040
ENDCHAR
STARTCHAR 00AD
ENCODING 173
SWIDTH 333 0
DWIDTH 7 0
BBX 5 1 1 6
BITMAP
F8
ENDCHAR
STARTCHAR 00AE
ENCODING 174
SWIDTH 857 0
DWIDTH 18 0
BBX 14 15 2 0
BITMAP
7FF8
8004
8004
8F84
8844
8844
8844
8F84
8884
8884
8844
8844
8004
8004
7FF8
ENDCHAR
STARTCHAR 00AF
ENCODING 175
SWIDTH 523 0
DWIDTH 11 0
BBX 5 1 3 14
BITMAP
F8
ENDCHAR
STARTCHAR 00B0
ENCODING 176
SWIDTH 428 0
DWIDTH 9 0
BBX 6 7 1 8
BITMAP
7C
84
84
84
84
84
7C
ENDCHAR
STARTCHAR 00B1
ENCODING 177
SWIDTH 571 0
DWIDTH 12 0
BBX 10 12 1 0
BITMAP
0400
0400
0400
0400
FFC0
0400
0400
0400
0400
0000
0000
FFC0
ENDCHAR
STARTCHAR 00B2
ENCODING 178
SWIDTH 333 0
DWIDTH 7 0
BBX 6 9 1 6
BITMAP
F8
04
04
04
78
80
80
80
FC
ENDCHAR
STARTCHAR 00B3
ENCODING 179
SWIDTH 333 0
DWIDTH 7 0
BBX 6 9 1 6
BITMAP
F8
04
04
04
78
04
04
04
F8
ENDCHAR
STARTCHAR 00B4
ENCODING 180
SWIDTH 523 0
DWIDTH 11 0
BBX 4 4 4 13
BITMAP
30
20
40
80
ENDCHAR
STARTCHAR 00B5
ENCODING 181
SWIDTH 571 0
DWIDTH 12 0
BBX 9 17 2 -5
BITMAP
8080
8080
8080
8080
8080
8080
8080
8080
8080
8100
8100
FE00
8000
8000
8000
8000
8000
ENDCHAR
STARTCHAR 00B6
ENCODING 182
SWIDTH 523 0
DWIDTH 11 0
BBX 7 19 2 -4
BITMAP
7A
FA
FA
FA
FA
FA
FA
FA
7A
02
02
02
02
02
02
02
02
02
02
ENDCHAR
STARTCHAR 00B7
ENCODING 183
SWIDTH 238 0
DWIDTH 5 0
BBX 1 2 2 6
BITMAP
80
80
ENDCHAR
STARTCHAR 00B8
ENCODING 184
SWIDTH 523 0
DWIDTH 11 0
BBX 4 4 3 -4
BITMAP
10
10
10
E0
ENDCHAR
STARTCHAR 00B9
ENCODING 185
SWIDTH 333 0
DWIDTH 7 0
BBX 5 9 1 6
BITMAP
60
20
20
20
20
20
20
20
F8
ENDCHAR
STARTCHAR 00BA
ENCODING 186
SWIDTH 428 0
DWIDTH 9 0
BBX 7 9 1 6
BITMAP
7C
82
82
82
82
82
82
82
7C
ENDCHAR
STARTCHAR 00BB
ENCODING 187
SWIDTH 428 0
DWIDTH 9 0
BBX 8 9 1 2
BITMAP
88
48
64
22
11
22
64
48
88
ENDCHAR
STARTCHAR 00BC
ENCODING 188
SWIDTH 809 0
DWIDTH 17 0
BBX 15 15 1 0
BITMAP
6010
2010
2020
2020
2040
2040
208C
2088
F908
0112
0212
0222
043E
0402
0802
ENDCHAR
STARTCHAR 00BD
ENCODING 189
SWIDTH 857 0
DWIDTH 18 0
BBX 17 15 1 0
BITMAP
601000
201000
202000
202000
204000
204000
209F00
208080
F90080
010100
020F00
021000
041000
041000
081F80
ENDCHAR
STARTCHAR 00BE
ENCODING 190
SWIDTH 809 0
DWIDTH 17 0
BBX 15 15 1 0
BITMAP
F810
0420
0420
0440
7840
0480
0488
0508
F910
0212
0222
0422
047E
0402
0802
ENDCHAR
STARTCHAR 00BF
ENCODING 191
SWIDTH 476 0
DWIDTH 10 0
BBX 8 15 1 -3
BITMAP
0C
0C
00
00
08
08
08
78
80
80
80
80
80
80
7F
ENDCHAR
STARTCHAR 00C0
ENCODING 192
SWIDTH 619 0
DWIDTH 13 0
BBX 12 20 0 0
BITMAP
0800
0400
0200
0200
0000
0600
0500
0500
0880
0880
0880
10C0
1040
1040
2060
3FE0
2020
4030
4010
C010
ENDCHAR
STARTCHAR 00C1
ENCODING 193
SWIDTH 619 0
DWIDTH 13 0
BBX 12 20 0 0
BITMAP
0180
0100
0200
0400
0000
0600
0500
0500
0880
0880
0880
10C0
1040
1040
2060
3FE0
2020
4030
4010
C010
ENDCHAR
STARTCHAR 00C2
ENCODING 194
SWIDTH 619 0
DWIDTH 13 0
BBX 12 19 0 0
BITMAP
0200
0500
0880
0000
0600
0500
0500
0880
0880
0880
10C0
1040
1040
2060
3FE0
2020
4030
4010
C010
ENDCHAR
STARTCHAR 00C3
ENCODING 195
SWIDTH 619 0
DWIDTH 13 0
BBX 12 18 0 0
BITMAP
0C80
1300
0000
0600
0500
0500
0880
0880
0880
10C0
1040
1040
2060
3FE0
2020
4030
4010
C010
ENDCHAR
STARTCHAR 00C4
ENCODING 196
SWIDTH 619 0
DWIDTH 13 0
BBX 12 19 0 0
BITMAP
0880
0880
0000
0000
0600
0500
0500
0880
0880
0880
10C0
1040
1040
2060
3FE0
2020
4030
4010
C010
ENDCHAR
STARTCHAR 00C5
ENCODING 197
SWIDTH 619 0
DWIDTH 13 0
BBX 12 20 0 0
BITMAP
0700
0900
0900
0700
0000
0600
0500
0500
0880
0880
0880
10C0
1040
1040
2060
3FE0
2020
4030
4010
C010
ENDCHAR
STARTCHAR 00C6
ENCODING 198
SWIDTH 857 0
DWIDTH 18 0
BBX 17 15 0 0
BITMAP
07FF80
044000
044000
084000
084000
084000
104000
107F80
104000
204000
3FC000
204000
404000
404000
C07F80
ENDCHAR
STARTCHAR 00C7
ENCODING 199
SWIDTH 619 0
DWIDTH 13 0
BBX 10 19 2 -4
BITMAP
7FC0
8000
8000
8000
8000
8000
8000
8000
8000
8000
8000
8000
8000
8000
7FC0
0200
0200
0200
1C00
ENDCHAR
STARTCHAR 00C8
ENCODING 200
SWIDTH 571 0
DWIDTH 12 0
BBX 9 20 2 0
BITMAP
2000
1000
0800
0400
0000
FF80
8000
8000
8000
8000
8000
8000
FF80
8000
8000
8000
8000
8000
8000
FF80
ENDCHAR
STARTCHAR 00C9
ENCODING 201
SWIDTH 571 0
DWIDTH 12 0
BBX 9 20 2 0
BITMAP
0200
0400
0800
0800
0000
FF80
8000
8000
8000
8000
8000
8000
FF80
8000
8000
8000
8000
8000
8000
FF80
ENDCHAR
STARTCHAR 00CA
ENCODING 202
SWIDTH 571 0
DWIDTH 12 0
BBX 9 19 2 0
BITMAP
0800
1400
2200
0000
FF80
8000
8000
8000
8000
8000
8000
FF80
8000
8000
8000
8000
8000
8000
FF80
ENDCHAR
STARTCHAR 00CB
ENCODING 203
SWIDTH 571 0
DWIDTH 12 0
BBX 9 19 2 0
BITMAP
2200
2200
0000
0000
FF80
8000
8000
8000
8000
8000
8000
FF80
8000
8000
8000
8000
8000
8000
FF80
ENDCHAR
STARTCHAR 00CC
ENCODING 204
SWIDTH 238 0
DWIDTH 5 0
BBX 4 20 0 0
BITMAP
80
40
20
30
00
20
20
20
20
20
20
20
20
20
20
20
20
20
20
20
ENDCHAR
STARTCHAR 00CD
ENCODING 205
SWIDTH 238 0
DWIDTH 5 0
BBX 4 20 1 0
BITMAP
10
20
40
C0
00
40
40
40
40
40
40
40
40
40
40
40
40
40
40
40
ENDCHAR
STARTCHAR 00CE
ENCODING 206
SWIDTH 238 0
DWIDTH 5 0
BBX 5 19 0 0
BITMAP
20
50
88
00
20
20
20
20
20
20
20
20
20
20
20
20
20
20
20
ENDCHAR
STARTCHAR 00CF
ENCODING 207
SWIDTH 238 0
DWIDTH 5 0
BBX 5 19 0 0
BITMAP
88
88
00
00
20
20
20
20
20
20
20
20
20
20
20
20
20
20
20
ENDCHAR
STARTCHAR 00D0
ENCODING 208
SWIDTH 666 0
DWIDTH 14 0
BBX 13 15 0 0
BITMAP
3FE0
2010
2010
2008
2008
2008
2008
FE08
2008
2008
2008
2008
2010
2010
3FE0
ENDCHAR
STARTCHAR 00D1
ENCODING 209
SWIDTH 714 0
DWIDTH 15 0
BBX 11 18 2 0
BITMAP
0D80
1700
0000
8020
C020
A020
A020
9020
8820
8820
8420
8220
8220
8120
81A0
80A0
8060
8060
ENDCHAR
STARTCHAR 00D2
ENCODING 210
SWIDTH 714 0
DWIDTH 15 0
BBX 11 20 2 0
BITMAP
1000
0800
0C00
0400
0000
7FC0
8060
8020
8020
8020
8020
8020
8020
8020
8020
8020
8020
8020
8060
7FC0
ENDCHAR
STARTCHAR 00D3
ENCODING 211
SWIDTH 714 0
DWIDTH 15 0
BBX 11 20 2 0
BITMAP
0300
0200
0400
0800
0000
7FC0
8060
8020
8020
8020
8020
8020
8020
8020
8020
8020
8020
8020
8060
7FC0
ENDCHAR
STARTCHAR 00D4
ENCODING 212
SWIDTH 714 0
DWIDTH 15 0
BBX 11 19 2 0
BITMAP
0400
0A00
1100
0000
7FC0
8060
8020
8020
8020
8020
8020
8020
8020
8020
8020
8020
8020
8060
7FC0
ENDCHAR
STARTCHAR 00D5
ENCODING 213
SWIDTH 714 0
DWIDTH 15 0
BBX 11 18 2 0
BITMAP
1900
2600
0000
7FC0
8060
8020
8020
8020
8020
8020
8020
8020
8020
8020
8020
8020
8060
7FC0
ENDCHAR
STARTCHAR 00D6
ENCODING 214
SWIDTH 714 0
DWIDTH 15 0
BBX 11 19 2 0
BITMAP
1300
1300
0000
0000
7FC0
8060
8020
8020
8020
8020
8020
8020
8020
8020
8020
8020
8020
8060
7FC0
ENDCHAR
STARTCHAR 00D7
ENCODING 215
SWIDTH 571 0
DWIDTH 12 0
BBX 8 9 2 3
BITMAP
81
C3
66
3C
18
3C
66
C3
81
ENDCHAR
STARTCHAR 00D8
ENCODING 216
SWIDTH 714 0
DWIDTH 15 0
BBX 11 15 2 0
BITMAP
7FC0
8060
8020
8060
80A0
8120
8220
8420
8820
9020
A020
C020
8020
8060
7FC0
ENDCHAR
STARTCHAR 00D9
ENCODING 217
SWIDTH 666 0
DWIDTH 14 0
BBX 10 20 2 0
BITMAP
1000
1800
0C00
0400
0000
8040
8040
8040
8040
8040
8040
8040
8040
8040
8040
8040
8040
8040
8040
7F80
ENDCHAR
STARTCHAR 00DA
ENCODING 218
SWIDTH 666 0
DWIDTH 14 0
BBX 10 20 2 0
BITMAP
0200
0200
0400
0800
0000
8040
8040
8040
8040
8040
8040
8040
8040
8040
8040
8040
8040
8040
8040
7F80
ENDCHAR
STARTCHAR 00DB
ENCODING 219
SWIDTH 666 0
DWIDTH 14 0
BBX 10 19 2 0
BITMAP
0400
0A00
1100
0000
8040
8040
8040
8040
8040
8040
8040
8040
8040
8040
8040
8040
8040
8040
7F80
ENDCHAR
STARTCHAR 00DC
ENCODING 220
SWIDTH 666 0
DWIDTH 14 0
BBX 10 19 2 0
BITMAP
1300
1300
0000
0000
8040
8040
8040
8040
8040
8040
8040
8040
8040
8040
8040
8040
8040
8040
7F80
ENDCHAR
STARTCHAR 00DD
ENCODING 221
SWIDTH 571 0
DWIDTH 12 0
BBX 11 20 0 0
BITMAP
0100
0300
0200
0400
0000
C020
4060
2040
20C0
1080
1100
0900
0A00
0600
0400
0400
0400
0400
0400
0400
ENDCHAR
STARTCHAR 00DE
ENCODING 222
SWIDTH 619 0
DWIDTH 13 0
BBX 10 15 2 0
BITMAP
8000
8000
8000
FF80
8080
8040
8040
8040
8040
8040
8080
FF80
8000
8000
8000
ENDCHAR
STARTCHAR 00DF
ENCODING 223
SWIDTH 571 0
DWIDTH 12 0
BBX 9 16 2 0
BITMAP
7E00
8100
8100
8100
8100
8100
8100
9E00
8100
8080
8080
8080
8080
8080
8180
9F00
ENDCHAR
STARTCHAR 00E0
ENCODING 224
SWIDTH 523 0
DWIDTH 11 0
BBX 9 17 1 0
BITMAP
3000
1000
0800
0400
0000
7E00
0100
0080
0080
0080
3F80
4080
8080
8080
8080
4080
7F80
ENDCHAR
STARTCHAR 00E1
ENCODING 225
SWIDTH 523 0
DWIDTH 11 0
BBX 9 17 1 0
BITMAP
0200
0400
0800
0800
0000
7E00
0100
0080
0080
0080
3F80
4080
8080
8080
8080
4080
7F80
ENDCHAR
STARTCHAR 00E2
ENCODING 226
SWIDTH 523 0
DWIDTH 11 0
BBX 9 16 1 0
BITMAP
0800
1400
2200
0000
7E00
0100
0080
0080
0080
3F80
4080
8080
8080
8080
4080
7F80
ENDCHAR
STARTCHAR 00E3
ENCODING 227
SWIDTH 523 0
DWIDTH 11 0
BBX 9 16 1 0
BITMAP
1900
2600
0000
0000
7E00
0100
0080
0080
0080
3F80
4080
8080
8080
8080
4080
7F80
ENDCHAR
STARTCHAR 00E4
ENCODING 228
SWIDTH 523 0
DWIDTH 11 0
BBX 9 16 1 0
BITMAP
2200
2200
0000
0000
7E00
0100
0080
0080
0080
3F80
4080
8080
8080
8080
4080
7F80
ENDCHAR
STARTCHAR 00E5
ENCODING 229
SWIDTH 523 0
DWIDTH 11 0
BBX 9 17 1 0
BITMAP
1C00
1200
1200
1C00
0000
7E00
0100
0080
0080
0080
3F80
4080
8080
8080
8080
4080
7F80
ENDCHAR
STARTCHAR 00E6
ENCODING 230
SWIDTH 904 0
DWIDTH 19 0
BBX 16 12 1 0
BITMAP
7E7E
0181
0101
0101
0101
3FFF
4100
8100
8100
8180
4180
7E7E
ENDCHAR
STARTCHAR 00E7
ENCODING 231
SWIDTH 476 0
DWIDTH 10 0
BBX 7 16 2 -4
BITMAP
7E
80
80
80
80
80
80
80
80
80
80
7E
04
04
08
38
ENDCHAR
STARTCHAR 00E8
ENCODING 232
SWIDTH 571 0
DWIDTH 12 0
BBX 8 17 2 0
BITMAP
20
30
10
08
00
7E
81
81
81
81
FF
80
80
80
80
80
7F
ENDCHAR
STARTCHAR 00E9
ENCODING 233
SWIDTH 571 0
DWIDTH 12 0
BBX 8 17 2 0
BITMAP
04
0C
08
10
00
7E
81
81
81
81
FF
80
80
80
80
80
7F
ENDCHAR
STARTCHAR 00EA
ENCODING 234
SWIDTH 571 0
DWIDTH 12 0
BBX 8 16 2 0
BITMAP
18
3C
46
00
7E
81
81
81
81
FF
80
80
80
80
80
7F
ENDCHAR
STARTCHAR 00EB
ENCODING 235
SWIDTH 571 0
DWIDTH 12 0
BBX 8 16 2 0
BITMAP
24
24
00
00
7E
81
81
81
81
FF
80
80
80
80
80
7F
ENDCHAR
STARTCHAR 00EC
ENCODING 236
SWIDTH 238 0
DWIDTH 5 0
BBX 3 17 0 0
BITMAP
80
40
60
20
00
20
20
20
20
20
20
20
20
20
20
20
20
ENDCHAR
STARTCHAR 00ED
ENCODING 237
SWIDTH 238 0
DWIDTH 5 0
BBX 4 17 1 0
BITMAP
30
20
40
80
00
40
40
40
40
40
40
40
40
40
40
40
40
ENDCHAR
STARTCHAR 00EE
ENCODING 238
SWIDTH 238 0
DWIDTH 5 0
BBX 5 16 0 0
BITMAP
20
50
88
00
20
20
20
20
20
20
20
20
20
20
20
20
ENDCHAR
STARTCHAR 00EF
ENCODING 239
SWIDTH 238 0
DWIDTH 5 0
BBX 5 16 0 0
BITMAP
98
98
00
00
20
20
20
20
20
20
20
20
20
20
20
20
ENDCHAR
STARTCHAR 00F0
ENCODING 240
SWIDTH 571 0
DWIDTH 12 0
BBX 9 16 2 0
BITMAP
0800
0900
0600
1E00
0200
0100
7F00
8080
8080
8080
8080
8080
8080
8080
8100
7E00
ENDCHAR
STARTCHAR 00F1
ENCODING 241
SWIDTH 571 0
DWIDTH 12 0
BBX 9 16 2 0
BITMAP
3200
4C00
0000
0000
FE00
8100
8100
8080
8080
8080
8080
8080
8080
8080
8080
8080
ENDCHAR
STARTCHAR 00F2
ENCODING 242
SWIDTH 571 0
DWIDTH 12 0
BBX 9 17 2 0
BITMAP
2000
3000
1000
0800
0000
7E00
8100
8080
8080
8080
8080
8080
8080
8080
8080
8100
7E00
ENDCHAR
STARTCHAR 00F3
ENCODING 243
SWIDTH 571 0
DWIDTH 12 0
BBX 9 17 2 0
BITMAP
0400
0C00
0800
1000
0000
7E00
8100
8080
8080
8080
8080
8080
8080
8080
8080
8100
7E00
ENDCHAR
STARTCHAR 00F4
ENCODING 244
SWIDTH 571 0
DWIDTH 12 0
BBX 9 16 2 0
BITMAP
0800
3C00
6200
0000
7E00
8100
8080
8080
8080
8080
8080
8080
8080
8080
8100
7E00
ENDCHAR
STARTCHAR 00F5
ENCODING 245
SWIDTH 571 0
DWIDTH 12 0
BBX 9 16 2 0
BITMAP
3200
4C00
0000
0000
7E00
8100
8080
8080
8080
8080
8080
8080
8080
8080
8100
7E00
ENDCHAR
STARTCHAR 00F6
ENCODING 246
SWIDTH 571 0
DWIDTH 12 0
BBX 9 16 2 0
BITMAP
2400
2400
0000
0000
7E00
8100
8080
8080
8080
8080
8080
8080
8080
8080
8100
7E00
ENDCHAR
STARTCHAR 00F7
ENCODING 247
SWIDTH 571 0
DWIDTH 12 0
BBX 10 9 1 3
BITMAP
0C00
0C00
0000
0000
FFC0
0000
0000
0C00
0C00
ENDCHAR
STARTCHAR 00F8
ENCODING 248
SWIDTH 571 0
DWIDTH 12 0
BBX 9 12 2 0
BITMAP
7E00
8100
8100
8280
8480
8880
9080
A080
C080
8080
8100
7E00
ENDCHAR
STARTCHAR 00F9
ENCODING 249
SWIDTH 571 0
DWIDTH 12 0
BBX 8 17 2 0
BITMAP
20
30
10
08
00
81
81
81
81
81
81
81
81
81
81
81
7F
ENDCHAR
STARTCHAR 00FA
ENCODING 250
SWIDTH 571 0
DWIDTH 12 0
BBX 8 17 2 0
BITMAP
04
0C
08
10
00
81
81
81
81
81
81
81
81
81
81
81
7F
ENDCHAR
STARTCHAR 00FB
ENCODING 251
SWIDTH 571 0
DWIDTH 12 0
BBX 8 16 2 0
BITMAP
08
3C
62
00
81
81
81
81
81
81
81
81
81
81
81
7F
ENDCHAR
STARTCHAR 00FC
ENCODING 252
SWIDTH 571 0
DWIDTH 12 0
BBX 8 16 2 0
BITMAP
24
24
00
00
81
81
81
81
81
81
81
81
81
81
81
7F
ENDCHAR
STARTCHAR 00FD
ENCODING 253
SWIDTH 476 0
DWIDTH 10 0
BBX 10 22 0 -5
BITMAP
0300
0200
0400
0800
0000
C040
4040
4080
2080
2080
2100
2100
1100
1200
1200
0A00
0C00
0400
0400
0800
0800
0800
ENDCHAR
STARTCHAR 00FE
ENCODING 254
SWIDTH 571 0
DWIDTH 12 0
BBX 9 21 2 -5
BITMAP
8000
8000
8000
8000
FE00
8100
8100
8080
8080
8080
8080
8080
8080
8100
8100
FE00
8000
8000
8000
8000
8000
ENDCHAR
STARTCHAR 00FF
ENCODING 255
SWIDTH 476 0
DWIDTH 10 0
BBX 10 21 0 -5
BITMAP
1300
1300
0000
0000
C040
4040
4080
2080
2080
2100
2100
1100
1200
1200
0A00
0C00
0400
0400
0800
0800
0800
ENDCHAR
STARTCHAR 0100
ENCODING 256
SWIDTH 619 0
DWIDTH 13 0
BBX 12 18 0 0
BITMAP
0F80
0000
0000
0600
0500
0500
0880
0880
0880
10C0
1040
1040
2060
3FE0
2020
4030
4010
C010
ENDCHAR
STARTCHAR 0101
ENCODING 257
SWIDTH 523 0
DWIDTH 11 0
BBX 9 15 1 0
BITMAP
3E00
0000
0000
7E00
0100
0080
0080
0080
3F80
4080
8080
8080
8080
4080
7F80
ENDCHAR
STARTCHAR 0102
ENCODING 258
SWIDTH 619 0
DWIDTH 13 0
BBX 12 19 0 0
BITMAP
0880
0880
0F80
0000
0600
0500
0500
0880
0880
0880
10C0
1040
1040
2060
3FE0
2020
4030
4010
C010
ENDCHAR
STARTCHAR 0103
ENCODING 259
SWIDTH 523 0
DWIDTH 11 0
BBX 9 17 1 0
BITMAP
2200
2200
3E00
0000
0000
7E00
0100
0080
0080
0080
3F80
4080
8080
8080
8080
4080
7F80
ENDCHAR
STARTCHAR 0104
ENCODING 260
SWIDTH 619 0
DWIDTH 13 0
BBX 12 19 0 -4
BITMAP
0600
0500
0500
0880
0880
0880
10C0
1040
1040
2060
3FE0
2020
4030
4010
C070
0040
0040
0040
0070
ENDCHAR
STARTCHAR 0105
ENCODING 261
SWIDTH 523 0
DWIDTH 11 0
BBX 9 16 1 -4
BITMAP
7E00
0100
0080
0080
0080
3F80
4080
8080
8080
8080
4080
7F80
0400
0400
0400
0380
ENDCHAR
STARTCHAR 0106
ENCODING 262
SWIDTH 619 0
DWIDTH 13 0
BBX 10 20 2 0
BITMAP
0200
0200
0400
0800
0000
7FC0
8000
8000
8000
8000
8000
8000
8000
8000
8000
8000
8000
8000
8000
7FC0
ENDCHAR
STARTCHAR 0107
ENCODING 263
SWIDTH 476 0
DWIDTH 10 0
BBX 7 17 2 0
BITMAP
04
0C
08
10
00
7E
80
80
80
80
80
80
80
80
80
80
7E
ENDCHAR
STARTCHAR 010C
ENCODING 268
SWIDTH 619 0
DWIDTH 13 0
BBX 10 19 2 0
BITMAP
3100
1A00
0400
0000
7FC0
8000
8000
8000
8000
8000
8000
8000
8000
8000
8000
8000
8000
8000
7FC0
ENDCHAR
STARTCHAR 010D
ENCODING 269
SWIDTH 476 0
DWIDTH 10 0
BBX 7 16 2 0
BITMAP
46
2C
10
00
7E
80
80
80
80
80
80
80
80
80
80
7E
ENDCHAR
STARTCHAR 010E
ENCODING 270
SWIDTH 666 0
DWIDTH 14 0
BBX 11 19 2 0
BITMAP
2300
1600
0800
0000
FF00
80C0
8040
8040
8020
8020
8020
8020
8020
8020
8020
8040
8040
80C0
FF00
ENDCHAR
STARTCHAR 010F
ENCODING 271
SWIDTH 619 0
DWIDTH 13 0
BBX 11 16 2 0
BITMAP
0120
0120
0120
0140
7F00
8100
8100
8100
8100
8100
8100
8100
8100
8100
8100
7F00
ENDCHAR
STARTCHAR 0110
ENCODING 272
SWIDTH 666 0
DWIDTH 14 0
BBX 13 15 0 0
BITMAP
3FE0
2010
2010
2008
2008
2008
2008
FE08
2008
2008
2008
2008
2010
2010
3FE0
ENDCHAR
STARTCHAR 0111
ENCODING 273
SWIDTH 571 0
DWIDTH 12 0
BBX 10 16 2 0
BITMAP
0100
0100
1FC0
0100
7F00
8100
8100
8100
8100
8100
8100
8100
8100
8100
8100
7F00
ENDCHAR
STARTCHAR 0112
ENCODING 274
SWIDTH 571 0
DWIDTH 12 0
BBX 9 18 2 0
BITMAP
3E00
0000
0000
FF80
8000
8000
8000
8000
8000
8000
FF80
8000
8000
8000
8000
8000
8000
FF80
ENDCHAR
STARTCHAR 0113
ENCODING 275
SWIDTH 571 0
DWIDTH 12 0
BBX 8 15 2 0
BITMAP
7E
00
00
7E
81
81
81
81
FF
80
80
80
80
80
7F
ENDCHAR
STARTCHAR 0116
ENCODING 278
SWIDTH 571 0
DWIDTH 12 0
BBX 9 19 2 0
BITMAP
0800
0800
0000
0000
FF80
8000
8000
8000
8000
8000
8000
FF80
8000
8000
8000
8000
8000
8000
FF80
ENDCHAR
STARTCHAR 0117
ENCODING 279
SWIDTH 571 0
DWIDTH 12 0
BBX 8 16 2 0
BITMAP
18
18
00
00
7E
81
81
81
81
FF
80
80
80
80
80
7F
ENDCHAR
STARTCHAR 0118
ENCODING 280
SWIDTH 571 0
DWIDTH 12 0
BBX 9 19 2 -4
BITMAP
FF80
8000
8000
8000
8000
8000
8000
FF80
8000
8000
8000
8000
8000
8000
FF80
0400
0400
0400
0380
ENDCHAR
STARTCHAR 0119
ENCODING 281
SWIDTH 571 0
DWIDTH 12 0
BBX 8 16 2 -4
BITMAP
7E
81
81
81
81
FF
80
80
80
80
80
7F
08
08
08
07
ENDCHAR
STARTCHAR 011A
ENCODING 282
SWIDTH 571 0
DWIDTH 12 0
BBX 9 19 2 0
BITMAP
2200
1400
0800
0000
FF80
8000
8000
8000
8000
8000
8000
FF80
8000
8000
8000
8000
8000
8000
FF80
ENDCHAR
STARTCHAR 011B
ENCODING 283
SWIDTH 571 0
DWIDTH 12 0
BBX 8 16 2 0
BITMAP
46
3C
10
00
7E
81
81
81
81
FF
80
80
80
80
80
7F
ENDCHAR
STARTCHAR 011E
ENCODING 286
SWIDTH 666 0
DWIDTH 14 0
BBX 10 19 2 0
BITMAP
1100
1100
1E00
0000
7FC0
8000
8000
8000
8000
8000
8000
87C0
8040
8040
8040
8040
8040
8040
7FC0
ENDCHAR
STARTCHAR 011F
ENCODING 287
SWIDTH 571 0
DWIDTH 12 0
BBX 8 22 2 -5
BITMAP
42
42
3C
00
00
7F
81
81
81
81
81
81
81
81
81
81
7F
01
01
01
01
FE
ENDCHAR
STARTCHAR 0122
ENCODING 290
SWIDTH 666 0
DWIDTH 14 0
BBX 10 19 2 -4
BITMAP
7FC0
8000
8000
8000
8000
8000
8000
87C0
8040
8040
8040
8040
8040
8040
7FC0
0000
0C00
0800
0800
ENDCHAR
STARTCHAR 0123
ENCODING 291
SWIDTH 571 0
DWIDTH 12 0
BBX 8 20 2 -5
BITMAP
08
08
08
7F
81
81
81
81
81
81
81
81
81
81
7F
01
01
01
01
FE
ENDCHAR
STARTCHAR 012A
ENCODING 298
SWIDTH 238 0
DWIDTH 5 0
BBX 5 18 0 0
BITMAP
F8
00
00
20
20
20
20
20
20
20
20
20
20
20
20
20
20
20
ENDCHAR
STARTCHAR 012B
ENCODING 299
SWIDTH 238 0
DWIDTH 5 0
BBX 5 15 0 0
BITMAP
F8
00
00
20
20
20
20
20
20
20
20
20
20
20
20
ENDCHAR
STARTCHAR 012E
ENCODING 302
SWIDTH 238 0
DWIDTH 5 0
BBX 4 19 0 -4
BITMAP
20
20
20
20
20
20
20
20
20
20
20
20
20
20
60
80
80
80
70
ENDCHAR
STARTCHAR 012F
ENCODING 303
SWIDTH 238 0
DWIDTH 5 0
BBX 4 20 0 -4
BITMAP
20
20
00
00
20
20
20
20
20
20
20
20
20
20
20
60
80
80
80
70
ENDCHAR
STARTCHAR 0130
ENCODING 304
SWIDTH 238 0
DWIDTH 5 0
BBX 1 19 2 0
BITMAP
80
80
00
00
80
80
80
80
80
80
80
80
80
80
80
80
80
80
80
ENDCHAR
STARTCHAR 0131
ENCODING 305
SWIDTH 238 0
DWIDTH 5 0
BBX 1 12 2 0
BITMAP
80
80
80
80
80
80
80
80
80
80
80
80
ENDCHAR
STARTCHAR 0136
ENCODING 310
SWIDTH 619 0
DWIDTH 13 0
BBX 10 19 2 -4
BITMAP
80C0
8180
8300
8200
8400
8800
9800
A800
C400
C600
8200
8100
8180
8080
8040
0000
0800
0800
1000
ENDCHAR
STARTCHAR 0137
ENCODING 311
SWIDTH 476 0
DWIDTH 10 0
BBX 8 20 2 -4
BITMAP
80
80
80
80
83
84
8C
88
90
B0
D8
C8
84
84
82
83
00
10
10
20
ENDCHAR
STARTCHAR 0139
ENCODING 313
SWIDTH 523 0
DWIDTH 11 0
BBX 9 20 2 0
BITMAP
2000
4000
8000
8000
0000
8000
8000
8000
8000
8000
8000
8000
8000
8000
8000
8000
8000
8000
8000
FF80
ENDCHAR
STARTCHAR 013A
ENCODING 314
SWIDTH 238 0
DWIDTH 5 0
BBX 3 22 1 0
BITMAP
20
20
40
80
00
00
40
40
40
40
40
40
40
40
40
40
40
40
40
40
40
60
ENDCHAR
STARTCHAR 013B
ENCODING 315
SWIDTH 523 0
DWIDTH 11 0
BBX 9 19 2 -4
BITMAP
8000
8000
8000
8000
8000
8000
8000
8000
8000
8000
8000
8000
8000
8000
FF80
0000
0800
1000
1000
ENDCHAR
STARTCHAR 013C
ENCODING 316
SWIDTH 238 0
DWIDTH 5 0
BBX 2 20 2 -4
BITMAP
80
80
80
80
80
80
80
80
80
80
80
80
80
80
80
C0
00
C0
80
80
ENDCHAR
STARTCHAR 013D
ENCODING 317
SWIDTH 523 0
DWIDTH 11 0
BBX 9 15 2 0
BITMAP
8400
8800
8800
8800
8000
8000
8000
8000
8000
8000
8000
8000
8000
8000
FF80
ENDCHAR
STARTCHAR 013E
ENCODING 318
SWIDTH 238 0
DWIDTH 5 0
BBX 3 16 2 0
BITMAP
A0
A0
A0
A0
80
80
80
80
80
80
80
80
80
80
80
C0
ENDCHAR
STARTCHAR 0141
ENCODING 321
SWIDTH 523 0
DWIDTH 11 0
BBX 11 15 0 0
BITMAP
2000
2000
2000
2000
2000
2000
2400
3800
6000
A000
2000
2000
2000
2000
3FE0
ENDCHAR
STARTCHAR 0142
ENCODING 322
SWIDTH 238 0
DWIDTH 5 0
BBX 5 16 0 0
BITMAP
20
20
20
20
20
20
28
30
60
A0
20
20
20
20
20
10
ENDCHAR
STARTCHAR 0143
ENCODING 323
SWIDTH 714 0
DWIDTH 15 0
BBX 11 20 2 0
BITMAP
0100
0200
0400
0400
0000
8020
C020
A020
A020
9020
8820
8820
8420
8220
8220
8120
81A0
80A0
8060
8060
ENDCHAR
STARTCHAR 0144
ENCODING 324
SWIDTH 571 0
DWIDTH 12 0
BBX 9 17 2 0
BITMAP
0400
0400
0800
1000
0000
FE00
8100
8100
8080
8080
8080
8080
8080
8080
8080
8080
8080
ENDCHAR
STARTCHAR 0145
ENCODING 325
SWIDTH 714 0
DWIDTH 15 0
BBX 11 19 2 -4
BITMAP
8020
C020
A020
A020
9020
8820
8820
8420
8220
8220
8120
81A0
80A0
8060
8060
0000
0400
0800
0800
ENDCHAR
STARTCHAR 0146
ENCODING 326
SWIDTH 571 0
DWIDTH 12 0
BBX 9 16 2 -4
BITMAP
FE00
8100
8100
8080
8080
8080
8080
8080
8080
8080
8080
8080
0000
0800
1000
1000
ENDCHAR
STARTCHAR 0147
ENCODING 327
SWIDTH 714 0
DWIDTH 15 0
BBX 11 19 2 0
BITMAP
1100
0A00
0400
0000
8020
C020
A020
A020
9020
8820
8820
8420
8220
8220
8120
81A0
80A0
8060
8060
ENDCHAR
STARTCHAR 0148
ENCODING 328
SWIDTH 571 0
DWIDTH 12 0
BBX 9 16 2 0
BITMAP
6200
1400
0800
0000
FE00
8100
8100
8080
8080
8080
8080
8080
8080
8080
8080
8080
ENDCHAR
STARTCHAR 014C
ENCODING 332
SWIDTH 714 0
DWIDTH 15 0
BBX 11 18 2 0
BITMAP
1F00
0000
0000
7FC0
8060
8020
8020
8020
8020
8020
8020
8020
8020
8020
8020
8020
8060
7FC0
ENDCHAR
STARTCHAR 014D
ENCODING 333
SWIDTH 571 0
DWIDTH 12 0
BBX 9 15 2 0
BITMAP
3E00
0000
0000
7E00
8100
8080
8080
8080
8080
8080
8080
8080
8080
8100
7E00
ENDCHAR
STARTCHAR 0150
ENCODING 336
SWIDTH 714 0
DWIDTH 15 0
BBX 11 20 2 0
BITMAP
0480
0C80
0900
1200
0000
7FC0
8060
8020
8020
8020
8020
8020
8020
8020
8020
8020
8020
8020
8060
7FC0
ENDCHAR
STARTCHAR 0151
ENCODING 337
SWIDTH 571 0
DWIDTH 12 0
BBX 9 17 2 0
BITMAP
0900
1300
3200
2400
0000
7E00
8100
8080
8080
8080
8080
8080
8080
8080
8080
8100
7E00
ENDCHAR
STARTCHAR 0152
ENCODING 338
SWIDTH 952 0
DWIDTH 20 0
BBX 17 15 2 0
BITMAP
7FFF80
804000
804000
804000
804000
804000
804000
807F00
804000
804000
804000
804000
804000
804000
7FFF80
ENDCHAR
STARTCHAR 0153
ENCODING 339
SWIDTH 904 0
DWIDTH 19 0
BBX 16 12 2 0
BITMAP
7EFE
8182
8101
8101
8101
81FF
8100
8100
8100
8100
8180
7EFE
ENDCHAR
STARTCHAR 0154
ENCODING 340
SWIDTH 619 0
DWIDTH 13 0
BBX 10 20 2 0
BITMAP
0200
0400
0800
0800
0000
FF80
8080
8040
8040
8040
8040
8040
8080
FF80
8300
8100
8180
8080
80C0
8040
ENDCHAR
STARTCHAR 0155
ENCODING 341
SWIDTH 333 0
DWIDTH 7 0
BBX 5 17 2 0
BITMAP
10
10
20
40
00
F8
80
80
80
80
80
80
80
80
80
80
80
ENDCHAR
STARTCHAR 0156
ENCODING 342
SWIDTH 619 0
DWIDTH 13 0
BBX 10 19 2 -4
BITMAP
FF80
8080
8040
8040
8040
8040
8040
8080
FF80
8300
8100
8180
8080
80C0
8040
0000
0800
0800
1000
ENDCHAR
STARTCHAR 0157
ENCODING 343
SWIDTH 333 0
DWIDTH 7 0
BBX 6 16 1 -4
BITMAP
7C
40
40
40
40
40
40
40
40
40
40
40
00
40
80
80
ENDCHAR
STARTCHAR 0158
ENCODING 344
SWIDTH 619 0
DWIDTH 13 0
BBX 10 19 2 0
BITMAP
2200
1400
0800
0000
FF80
8080
8040
8040
8040
8040
8040
8080
FF80
8300
8100
8180
8080
80C0
8040
ENDCHAR
STARTCHAR 0159
ENCODING 345
SWIDTH 333 0
DWIDTH 7 0
BBX 5 16 2 0
BITMAP
88
50
20
00
F8
80
80
80
80
80
80
80
80
80
80
80
ENDCHAR
STARTCHAR 015A
ENCODING 346
SWIDTH 571 0
DWIDTH 12 0
BBX 10 20 1 0
BITMAP
0200
0600
0400
0800
0000
7F80
4000
8000
8000
8000
4000
7000
0F00
0080
0040
0040
0040
0040
0080
FF80
ENDCHAR
STARTCHAR 015B
ENCODING 347
SWIDTH 476 0
DWIDTH 10 0
BBX 8 17 1 0
BITMAP
04
04
08
10
00
7F
40
80
80
40
38
06
01
01
01
01
FE
ENDCHAR
STARTCHAR 015E
ENCODING 350
SWIDTH 571 0
DWIDTH 12 0
BBX 10 19 1 -4
BITMAP
7F80
4000
8000
8000
8000
4000
7000
0F00
0080
0040
0040
0040
0040
0080
FF80
0200
0200
0200
1C00
ENDCHAR
STARTCHAR 015F
ENCODING 351
SWIDTH 476 0
DWIDTH 10 0
BBX 8 16 1 -4
BITMAP
7F
40
80
80
40
38
06
01
01
01
01
FE
04
04
04
38
ENDCHAR
STARTCHAR 0160
ENCODING 352
SWIDTH 571 0
DWIDTH 12 0
BBX 10 19 1 0
BITMAP
3100
1E00
0400
0000
7F80
4000
8000
8000
8000
4000
7000
0F00
0080
0040
0040
0040
0040
0080
FF80
ENDCHAR
STARTCHAR 0161
ENCODING 353
SWIDTH 476 0
DWIDTH 10 0
BBX 8 16 1 0
BITMAP
22
14
08
00
7F
40
80
80
40
38
06
01
01
01
01
FE
ENDCHAR
STARTCHAR 0162
ENCODING 354
SWIDTH 571 0
DWIDTH 12 0
BBX 12 19 0 -4
BITMAP
FFF0
0200
0200
0200
0200
0200
0200
0200
0200
0200
0200
0200
0200
0200
0200
0100
0100
0100
0E00
ENDCHAR
STARTCHAR 0163
ENCODING 355
SWIDTH 380 0
DWIDTH 8 0
BBX 5 19 2 -4
BITMAP
80
80
80
F8
80
80
80
80
80
80
80
80
80
80
78
10
10
10
E0
ENDCHAR
STARTCHAR 0164
ENCODING 356
SWIDTH 571 0
DWIDTH 12 0
BBX 12 19 0 0
BITMAP
1880
0D00
0200
0000
FFF0
0200
0200
0200
0200
0200
0200
0200
0200
0200
0200
0200
0200
0200
0200
ENDCHAR
STARTCHAR 0165
ENCODING 357
SWIDTH 380 0
DWIDTH 8 0
BBX 5 16 2 0
BITMAP
10
90
90
A0
F8
80
80
80
80
80
80
80
80
80
80
78
ENDCHAR
STARTCHAR 016A
ENCODING 362
SWIDTH 666 0
DWIDTH 14 0
BBX 10 18 2 0
BITMAP
1F00
0000
0000
8040
8040
8040
8040
8040
8040
8040
8040
8040
8040
8040
8040
8040
8040
7F80
ENDCHAR
STARTCHAR 016B
ENCODING 363
SWIDTH 571 0
DWIDTH 12 0
BBX 8 15 2 0
BITMAP
3E
00
00
81
81
81
81
81
81
81
81
81
81
81
7F
ENDCHAR
STARTCHAR 016E
ENCODING 366
SWIDTH 666 0
DWIDTH 14 0
BBX 10 20 2 0
BITMAP
1E00
1200
1200
1E00
0000
8040
8040
8040
8040
8040
8040
8040
8040
8040
8040
8040
8040
8040
8040
7F80
ENDCHAR
STARTCHAR 016F
ENCODING 367
SWIDTH 571 0
DWIDTH 12 0
BBX 8 17 2 0
BITMAP
3C
24
24
3C
00
81
81
81
81
81
81
81
81
81
81
81
7F
ENDCHAR
STARTCHAR 0170
ENCODING 368
SWIDTH 666 0
DWIDTH 14 0
BBX 10 20 2 0
BITMAP
0480
0980
0900
1200
0000
8040
8040
8040
8040
8040
8040
8040
8040
8040
8040
8040
8040
8040
8040
7F80
ENDCHAR
STARTCHAR 0171
ENCODING 369
SWIDTH 571 0
DWIDTH 12 0
BBX 8 17 2 0
BITMAP
09
13
32
24
00
81
81
81
81
81
81
81
81
81
81
81
7F
ENDCHAR
STARTCHAR 0172
ENCODING 370
SWIDTH 666 0
DWIDTH 14 0
BBX 10 19 2 -4
BITMAP
8040
8040
8040
8040
8040
8040
8040
8040
8040
8040
8040
8040
8040
8040
7F80
0400
0800
0400
0700
ENDCHAR
STARTCHAR 0173
ENCODING 371
SWIDTH 571 0
DWIDTH 12 0
BBX 8 16 2 -4
BITMAP
81
81
81
81
81
81
81
81
81
81
81
7F
04
04
04
07
ENDCHAR
STARTCHAR 0178
ENCODING 376
SWIDTH 571 0
DWIDTH 12 0
BBX 11 19 0 0
BITMAP
0900
0900
0000
0000
C020
4060
2040
20C0
1080
1100
0900
0A00
0600
0400
0400
0400
0400
0400
0400
ENDCHAR
STARTCHAR 0179
ENCODING 377
SWIDTH 619 0
DWIDTH 13 0
BBX 10 20 1 0
BITMAP
0300
0200
0400
0800
0000
FFC0
0040
0080
0100
0100
0200
0400
0400
0800
1000
1000
2000
4000
4000
FFC0
ENDCHAR
STARTCHAR 017A
ENCODING 378
SWIDTH 523 0
DWIDTH 11 0
BBX 8 17 1 0
BITMAP
06
04
08
10
00
FF
01
02
04
04
08
10
10
20
40
40
FF
ENDCHAR
STARTCHAR 017B
ENCODING 379
SWIDTH 619 0
DWIDTH 13 0
BBX 10 19 1 0
BITMAP
0400
0400
0000
0000
FFC0
0040
0080
0100
0100
0200
0400
0400
0800
1000
1000
2000
4000
4000
FFC0
ENDCHAR
STARTCHAR 017C
ENCODING 380
SWIDTH 523 0
DWIDTH 11 0
BBX 8 16 1 0
BITMAP
08
08
00
00
FF
01
02
04
04
08
10
10
20
40
40
FF
ENDCHAR
STARTCHAR 017D
ENCODING 381
SWIDTH 619 0
DWIDTH 13 0
BBX 10 19 1 0
BITMAP
1100
0A00
0400
0000
FFC0
0040
0080
0100
0100
0200
0400
0400
0800
1000
1000
2000
4000
4000
FFC0
ENDCHAR
STARTCHAR 017E
ENCODING 382
SWIDTH 523 0
DWIDTH 11 0
BBX 8 16 1 0
BITMAP
22
14
08
00
FF
01
02
04
04
08
10
10
20
40
40
FF
ENDCHAR
STARTCHAR 0192
ENCODING 402
SWIDTH 571 0
DWIDTH 12 0
BBX 8 19 1 -3
BITMAP
0F
10
10
10
1F
10
10
10
10
10
10
10
10
10
10
10
10
10
E0
ENDCHAR
STARTCHAR 0218
ENCODING 536
SWIDTH 571 0
DWIDTH 12 0
BBX 10 19 1 -4
BITMAP
7F80
4000
8000
8000
8000
4000
7000
0F00
0080
0040
0040
0040
0040
0080
FF80
0000
0C00
0800
0800
ENDCHAR
STARTCHAR 0219
ENCODING 537
SWIDTH 476 0
DWIDTH 10 0
BBX 8 16 1 -4
BITMAP
7F
40
80
80
40
38
06
01
01
01
01
FE
00
08
10
10
ENDCHAR
STARTCHAR 021A
ENCODING 538
SWIDTH 571 0
DWIDTH 12 0
BBX 12 19 0 -4
BITMAP
FFF0
0200
0200
0200
0200
0200
0200
0200
0200
0200
0200
0200
0200
0200
0200
0000
0600
0400
0400
ENDCHAR
STARTCHAR 021B
ENCODING 539
SWIDTH 380 0
DWIDTH 8 0
BBX 5 19 2 -4
BITMAP
80
80
80
F8
80
80
80
80
80
80
80
80
80
80
78
00
20
20
40
ENDCHAR
STARTCHAR 0237
ENCODING 567
SWIDTH 238 0
DWIDTH 5 0
BBX 3 17 0 -5
BITMAP
20
20
20
20
20
20
20
20
20
20
20
20
20
20
20
60
C0
ENDCHAR
STARTCHAR 02C6
ENCODING 710
SWIDTH 523 0
DWIDTH 11 0
BBX 5 3 3 13
BITMAP
20
50
88
ENDCHAR
STARTCHAR 02C7
ENCODING 711
SWIDTH 523 0
DWIDTH 11 0
BBX 5 3 3 13
BITMAP
88
50
20
ENDCHAR
STARTCHAR 02C9
ENCODING 713
SWIDTH 523 0
DWIDTH 11 0
BBX 5 1 3 14
BITMAP
F8
ENDCHAR
STARTCHAR 02D8
ENCODING 728
SWIDTH 523 0
DWIDTH 11 0
BBX 5 3 3 14
BITMAP
88
88
F0
ENDCHAR
STARTCHAR 02D9
ENCODING 729
SWIDTH 523 0
DWIDTH 11 0
BBX 1 2 5 14
BITMAP
80
80
ENDCHAR
STARTCHAR 02DA
ENCODING 730
SWIDTH 523 0
DWIDTH 11 0
BBX 4 4 3 13
BITMAP
70
90
90
70
ENDCHAR
STARTCHAR 02DB
ENCODING 731
SWIDTH 523 0
DWIDTH 11 0
BBX 4 5 4 -4
BITMAP
40
80
80
80
70
ENDCHAR
STARTCHAR 02DC
ENCODING 732
SWIDTH 523 0
DWIDTH 11 0
BBX 6 2 2 14
BITMAP
64
98
ENDCHAR
STARTCHAR 02DD
ENCODING 733
SWIDTH 523 0
DWIDTH 11 0
BBX 6 4 3 13
BITMAP
24
64
48
90
ENDCHAR
STARTCHAR 0300
ENCODING 768
SWIDTH 0 0
DWIDTH 0 0
BBX 3 4 -8 13
BITMAP
80
C0
40
20
ENDCHAR
STARTCHAR 0301
ENCODING 769
SWIDTH 0 0
DWIDTH 0 0
BBX 3 4 -7 13
BITMAP
20
60
40
80
ENDCHAR
STARTCHAR 0302
ENCODING 770
SWIDTH 0 0
DWIDTH 0 0
BBX 6 3 -9 13
BITMAP
30
78
C4
ENDCHAR
STARTCHAR 0303
ENCODING 771
SWIDTH 0 0
DWIDTH 0 0
BBX 6 2 -9 14
BITMAP
64
98
ENDCHAR
STARTCHAR 0304
ENCODING 772
SWIDTH 0 0
DWIDTH 0 0
BBX 5 1 -8 14
BITMAP
F8
ENDCHAR
STARTCHAR 0306
ENCODING 774
SWIDTH 0 0
DWIDTH 0 0
BBX 5 3 -8 14
BITMAP
88
88
F0
ENDCHAR
STARTCHAR 0307
ENCODING 775
SWIDTH 0 0
DWIDTH 0 0
BBX 2 2 -7 14
BITMAP
C0
C0
ENDCHAR
STARTCHAR 0308
ENCODING 776
SWIDTH 0 0
DWIDTH 0 0
BBX 4 2 -8 14
BITMAP
90
90
ENDCHAR
STARTCHAR 030A
ENCODING 778
SWIDTH 0 0
DWIDTH 0 0
BBX 4 4 -8 13
BITMAP
F0
90
90
F0
ENDCHAR
STARTCHAR 030B
ENCODING 779
SWIDTH 0 0
DWIDTH 0 0
BBX 6 4 -8 13
BITMAP
24
4C
C8
90
ENDCHAR
STARTCHAR 030C
ENCODING 780
SWIDTH 0 0
DWIDTH 0 0
BBX 6 3 -9 13
BITMAP
C4
78
30
ENDCHAR
STARTCHAR 0326
ENCODING 806
SWIDTH 0 0
DWIDTH 0 0
BBX 2 3 -7 -4
BITMAP
C0
80
80
ENDCHAR
STARTCHAR 0327
ENCODING 807
SWIDTH 0 0
DWIDTH 0 0
BBX 4 4 -8 -4
BITMAP
10
10
10
E0
ENDCHAR
STARTCHAR 0328
ENCODING 808
SWIDTH 0 0
DWIDTH 0 0
BBX 4 5 -7 -4
BITMAP
40
80
80
80
70
ENDCHAR
STARTCHAR 03C0
ENCODING 960
SWIDTH 571 0
DWIDTH 12 0
BBX 9 12 2 0
BITMAP
FF80
8080
8080
8080
8080
8080
8080
8080
8080
8080
8080
8080
ENDCHAR
STARTCHAR 1E9E
ENCODING 7838
SWIDTH 666 0
DWIDTH 14 0
BBX 11 15 2 0
BITMAP
7FC0
8080
8180
8100
8200
8400
8400
8FC0
8060
8020
8020
8020
8020
8060
8FC0
ENDCHAR
STARTCHAR 2013
ENCODING 8211
SWIDTH 571 0
DWIDTH 12 0
BBX 10 1 1 6
BITMAP
FFC0
ENDCHAR
STARTCHAR 2014
ENCODING 8212
SWIDTH 1000 0
DWIDTH 21 0
BBX 19 1 1 6
BITMAP
FFFFE0
ENDCHAR
STARTCHAR 2018
ENCODING 8216
SWIDTH 238 0
DWIDTH 5 0
BBX 2 5 2 11
BITMAP
40
40
80
80
80
ENDCHAR
STARTCHAR 2019
ENCODING 8217
SWIDTH 238 0
DWIDTH 5 0
BBX 3 5 1 11
BITMAP
20
40
40
40
80
ENDCHAR
STARTCHAR 201A
ENCODING 8218
SWIDTH 238 0
DWIDTH 5 0
BBX 2 5 1 -3
BITMAP
40
40
80
80
80
ENDCHAR
STARTCHAR 201C
ENCODING 8220
SWIDTH 428 0
DWIDTH 9 0
BBX 5 5 2 11
BITMAP
48
48
88
90
90
ENDCHAR
STARTCHAR 201D
ENCODING 8221
SWIDTH 428 0
DWIDTH 9 0
BBX 6 5 1 11
BITMAP
24
44
48
48
88
ENDCHAR
STARTCHAR 201E
ENCODING 8222
SWIDTH 428 0
DWIDTH 9 0
BBX 5 5 1 -3
BITMAP
48
48
88
90
90
ENDCHAR
STARTCHAR 2020
ENCODING 8224
SWIDTH 476 0
DWIDTH 10 0
BBX 8 17 1 -2
BITMAP
08
08
08
08
08
FF
08
08
08
08
08
08
08
08
08
08
08
ENDCHAR
STARTCHAR 2021
ENCODING 8225
SWIDTH 476 0
DWIDTH 10 0
BBX 8 17 1 -2
BITMAP
08
08
08
08
08
FF
08
08
08
08
08
FF
08
08
08
08
08
ENDCHAR
STARTCHAR 2022
ENCODING 8226
SWIDTH 333 0
DWIDTH 7 0
BBX 3 4 2 6
BITMAP
E0
E0
E0
E0
ENDCHAR
STARTCHAR 2026
ENCODING 8230
SWIDTH 761 0
DWIDTH 16 0
BBX 12 2 2 0
BITMAP
8630
8630
ENDCHAR
STARTCHAR 2030
ENCODING 8240
SWIDTH 1190 0
DWIDTH 25 0
BBX 23 15 1 0
BITMAP
F81000
842000
842000
844000
844000
848000
849E3E
852142
F92142
022142
022142
042142
042142
042142
081E3E
ENDCHAR
STARTCHAR 2039
ENCODING 8249
SWIDTH 285 0
DWIDTH 6 0
BBX 4 9 1 2
BITMAP
10
20
40
C0
80
C0
40
20
10
ENDCHAR
STARTCHAR 203A
ENCODING 8250
SWIDTH 285 0
DWIDTH 6 0
BBX 4 9 1 2
BITMAP
80
40
60
20
10
20
60
40
80
ENDCHAR
STARTCHAR 2044
ENCODING 8260
SWIDTH 142 0
DWIDTH 3 0
BBX 7 15 -2 0
BITMAP
02
02
04
04
08
08
10
10
20
20
40
40
40
80
80
ENDCHAR
STARTCHAR 2070
ENCODING 8304
SWIDTH 333 0
DWIDTH 7 0
BBX 6 9 1 6
BITMAP
F8
84
84
84
84
84
84
84
F8
ENDCHAR
STARTCHAR 2074
ENCODING 8308
SWIDTH 333 0
DWIDTH 7 0
BBX 6 9 1 6
BITMAP
10
20
20
44
44
84
FC
04
04
ENDCHAR
STARTCHAR 2080
ENCODING 8320
SWIDTH 333 0
DWIDTH 7 0
BBX 6 9 1 0
BITMAP
F8
84
84
84
84
84
84
84
F8
ENDCHAR
STARTCHAR 2081
ENCODING 8321
SWIDTH 333 0
DWIDTH 7 0
BBX 5 9 1 0
BITMAP
60
20
20
20
20
20
20
20
F8
ENDCHAR
STARTCHAR 2082
ENCODING 8322
SWIDTH 333 0
DWIDTH 7 0
BBX 6 9 1 0
BITMAP
F8
04
04
04
78
80
80
80
FC
ENDCHAR
STARTCHAR 2083
ENCODING 8323
SWIDTH 333 0
DWIDTH 7 0
BBX 6 9 1 0
BITMAP
F8
04
04
04
78
04
04
04
F8
ENDCHAR
STARTCHAR 2084
ENCODING 8324
SWIDTH 333 0
DWIDTH 7 0
BBX 6 9 1 0
BITMAP
10
20
20
44
44
84
FC
04
04
ENDCHAR
STARTCHAR 20AC
ENCODING 8364
SWIDTH 571 0
DWIDTH 12 0
BBX 10 15 1 0
BITMAP
3FC0
2000
4000
4000
4000
4000
FF80
4000
4000
FF00
4000
4000
4000
2000
3FC0
ENDCHAR
STARTCHAR 20BA
ENCODING 8378
SWIDTH 571 0
DWIDTH 12 0
BBX 10 15 1 0
BITMAP
2000
2000
2000
2600
3800
E200
AE00
3000
E040
2040
2040
2040
2080
2180
3F00
ENDCHAR
STARTCHAR 20BD
ENCODING 8381
SWIDTH 571 0
DWIDTH 12 0
BBX 10 15 1 0
BITMAP
7F80
40C0
4040
4040
4040
4040
40C0
FF80
4000
FE00
4000
4000
4000
4000
4000
ENDCHAR
STARTCHAR 2113
ENCODING 8467
SWIDTH 238 0
DWIDTH 5 0
BBX 2 16 2 0
BITMAP
80
80
80
80
80
80
80
80
80
80
80
80
80
80
80
C0
ENDCHAR
STARTCHAR 2122
ENCODING 8482
SWIDTH 761 0
DWIDTH 16 0
BBX 15 8 0 7
BITMAP
FC82
1186
1146
114A
112A
1132
1112
1102
ENDCHAR
STARTCHAR 2126
ENCODING 8486
SWIDTH 714 0
DWIDTH 15 0
BBX 12 15 1 0
BITMAP
3FE0
4030
4010
4010
4010
4010
4010
4010
4010
4010
4020
2020
1040
1080
F8F0
ENDCHAR
STARTCHAR 212E
ENCODING 8494
SWIDTH 857 0
DWIDTH 18 0
BBX 16 15 1 0
BITMAP
07E0
1818
3004
6006
6007
6007
E007
FFFF
E000
6000
6000
6000
3004
1818
07E0
ENDCHAR
STARTCHAR 2202
ENCODING 8706
SWIDTH 571 0
DWIDTH 12 0
BBX 8 16 2 0
BITMAP
7C
03
01
01
01
01
7F
81
81
81
81
81
81
81
81
7E
ENDCHAR
STARTCHAR 2206
ENCODING 8710
SWIDTH 619 0
DWIDTH 13 0
BBX 13 15 0 0
BITMAP
0700
0500
0500
0880
0880
0880
1040
1040
1040
2020
2020
2020
4010
4010
FFF8
ENDCHAR
STARTCHAR 220F
ENCODING 8719
SWIDTH 714 0
DWIDTH 15 0
BBX 11 17 2 -2
BITMAP
FFE0
8020
8020
8020
8020
8020
8020
8020
8020
8020
8020
8020
8020
8020
8020
8020
8020
ENDCHAR
STARTCHAR 2211
ENCODING 8721
SWIDTH 571 0
DWIDTH 12 0
BBX 10 17 1 -2
BITMAP
FFC0
C000
4000
2000
1000
1000
0800
0400
0400
0400
0800
1000
1000
2000
4000
C000
FFC0
ENDCHAR
STARTCHAR 2212
ENCODING 8722
SWIDTH 571 0
DWIDTH 12 0
BBX 10 1 1 7
BITMAP
FFC0
ENDCHAR
STARTCHAR 2215
ENCODING 8725
SWIDTH 142 0
DWIDTH 3 0
BBX 7 15 -2 0
BITMAP
02
02
04
04
08
08
10
10
20
20
40
40
40
80
80
ENDCHAR
STARTCHAR 2219
ENCODING 8729
SWIDTH 238 0
DWIDTH 5 0
BBX 1 2 2 6
BITMAP
80
80
ENDCHAR
STARTCHAR 221A
ENCODING 8730
SWIDTH 571 0
DWIDTH 12 0
BBX 12 17 0 0
BITMAP
0020
0010
0020
0020
0020
0040
0040
0080
0080
E080
1100
1100
1100
0A00
0A00
0600
0400
ENDCHAR
STARTCHAR 221E
ENCODING 8734
SWIDTH 619 0
DWIDTH 13 0
BBX 11 6 1 4
BITMAP
FBC0
8420
8420
8420
8420
FBC0
ENDCHAR
STARTCHAR 222B
ENCODING 8747
SWIDTH 380 0
DWIDTH 8 0
BBX 8 21 0 -5
BITMAP
07
08
08
08
08
08
08
08
08
08
08
08
08
08
08
08
08
08
10
10
E0
ENDCHAR
STARTCHAR 2248
ENCODING 8776
SWIDTH 571 0
DWIDTH 12 0
BBX 10 7 1 3
BITMAP
3840
4C80
8700
0000
3840
4C80
8700
ENDCHAR
STARTCHAR 2260
ENCODING 8800
SWIDTH 571 0
DWIDTH 12 0
BBX 10 12 1 1
BITMAP
0100
0100
0200
FFC0
0400
0400
0800
0800
FFC0
1000
2000
2000
ENDCHAR
STARTCHAR 2264
ENCODING 8804
SWIDTH 571 0
DWIDTH 12 0
BBX 10 11 1 0
BITMAP
00C0
0300
1C00
6000
8000
6000
1800
0700
00C0
0000
FFC0
ENDCHAR
STARTCHAR 2265
ENCODING 8805
SWIDTH 571 0
DWIDTH 12 0
BBX 10 11 1 0
BITMAP
C000
3800
0600
0180
0040
0180
0600
1800
E000
0000
FFC0
ENDCHAR
STARTCHAR 25CA
ENCODING 9674
SWIDTH 571 0
DWIDTH 12 0
BBX 10 15 1 0
BITMAP
0C00
0C00
1200
1100
2100
2080
4080
8040
4080
2080
2100
1100
1200
0C00
0C00
ENDCHAR
STARTCHAR F000
ENCODING 61440
SWIDTH 714 0
DWIDTH 15 0
BBX 13 11 1 2
BITMAP
0200
0600
0700
0F00
0F80
1FC0
1FC0
3FE0
7FE0
7FF0
FFF8
ENDCHAR
STARTCHAR FB01
ENCODING 64257
SWIDTH 571 0
DWIDTH 12 0
BBX 8 16 2 0
BITMAP
79
81
80
80
F9
81
81
81
81
81
81
81
81
81
81
81
ENDCHAR
STARTCHAR FB02
ENCODING 64258
SWIDTH 571 0
DWIDTH 12 0
BBX 10 16 2 0
BITMAP
7900
8100
8100
8100
F900
8100
8100
8100
8100
8100
8100
8100
8100
8100
8100
80C0
ENDCHAR
ENDFONT
